<?xml version="1.0" standalone="no"?>
<!DOCTYPE svg PUBLIC "-//W3C//DTD SVG 20010904//EN"
 "http://www.w3.org/TR/2001/REC-SVG-20010904/DTD/svg10.dtd">
<svg version="1.0" xmlns="http://www.w3.org/2000/svg"
 width="194.000000pt" height="454.000000pt" viewBox="0 0 194.000000 454.000000"
 preserveAspectRatio="xMidYMid meet">

<g transform="translate(0.000000,454.000000) scale(0.100000,-0.100000)"
fill="#000000" stroke="none">
<path d="M870 4531 c-43 -9 -75 -27 -118 -66 -49 -44 -73 -96 -76 -168 -2 -43
-11 -78 -30 -116 -30 -59 -28 -81 8 -81 21 0 24 -5 31 -57 4 -32 12 -64 17
-70 6 -7 30 -13 55 -13 l44 0 -3 -56 -3 -57 -79 -33 c-43 -18 -121 -47 -172
-64 -72 -24 -100 -39 -123 -66 -46 -52 -71 -146 -71 -273 -1 -114 -3 -125 -49
-306 -33 -132 -87 -370 -122 -537 l-22 -107 -62 -62 c-34 -34 -69 -66 -78 -71
-10 -5 -17 -16 -17 -23 0 -18 31 -20 48 -3 21 21 21 5 1 -81 -11 -46 -17 -86
-14 -90 11 -10 33 28 40 68 3 20 10 43 15 51 15 23 12 -24 -5 -95 -17 -71 -18
-85 -5 -85 5 0 19 33 31 73 22 75 39 106 39 71 0 -18 -15 -91 -26 -126 -3 -12
0 -18 9 -18 8 0 18 12 22 28 20 82 37 132 45 127 5 -3 4 -20 -1 -38 -12 -43
-11 -57 4 -57 16 0 67 193 67 257 0 32 9 68 28 108 16 33 66 146 111 250 46
105 90 206 99 225 9 19 23 73 32 120 20 101 20 100 50 -135 12 -93 28 -195 36
-227 12 -49 12 -65 -1 -130 -52 -245 -81 -554 -65 -713 40 -415 41 -439 30
-564 -5 -67 -12 -126 -15 -130 -2 -4 -9 -55 -15 -114 -13 -127 -5 -198 66
-645 29 -185 28 -191 -37 -292 -41 -64 -49 -100 -25 -119 17 -14 239 -21 252
-8 4 4 -1 67 -11 140 -24 161 -24 336 -2 432 29 129 42 305 29 404 -16 122
-15 170 8 291 37 191 90 521 107 667 9 78 20 143 23 143 4 0 12 -51 19 -112
13 -126 68 -471 108 -678 22 -119 24 -147 17 -235 -14 -163 -8 -325 17 -449
29 -139 30 -283 4 -463 -10 -73 -15 -136 -11 -140 12 -12 220 -7 244 6 33 18
27 57 -17 121 -54 77 -67 124 -53 197 16 82 58 365 77 512 17 132 14 206 -12
351 -21 114 -20 358 2 525 22 164 22 400 0 565 -17 132 -54 350 -61 362 -2 3
2 37 10 75 8 37 24 142 36 233 30 230 30 230 50 130 14 -72 49 -167 125 -335
126 -279 145 -329 145 -373 0 -62 50 -252 67 -252 15 0 16 14 4 57 -6 19 -6
35 -1 38 5 3 14 -14 20 -37 19 -75 31 -108 41 -114 19 -11 20 4 5 64 -32 120
-12 124 23 5 13 -42 27 -73 35 -73 10 0 7 21 -10 88 -25 100 -19 137 8 47 19
-60 33 -84 43 -73 4 3 -2 42 -13 87 -11 45 -16 84 -11 86 4 3 10 1 14 -5 10
-16 45 -12 45 5 0 8 -4 15 -8 15 -5 0 -40 32 -79 70 l-70 70 -22 108 c-47 224
-132 589 -147 632 -10 28 -19 105 -23 205 -7 132 -12 169 -30 211 -28 64 -62
97 -124 117 -86 29 -263 99 -280 112 -22 16 -47 129 -47 213 0 49 6 74 27 115
50 97 31 220 -44 292 -59 56 -147 82 -223 66z"/>
</g>
</svg>
